<svg id="SvgjsSvg1001" width="288" height="288" xmlns="http://www.w3.org/2000/svg" version="1.1" xmlns:xlink="http://www.w3.org/1999/xlink" xmlns:svgjs="http://svgjs.com/svgjs"><defs id="SvgjsDefs1002"></defs><g id="SvgjsG1008" transform="matrix(1,0,0,1,0,0)"><svg xmlns="http://www.w3.org/2000/svg" viewBox="0 0 32 32" width="288" height="288"><path d="M23.05,22a1,1,0,0,0-1.41,0L17,26.56V3a1,1,0,1,0-2,0V26.53L10.47,22a1,1,0,0,0-1.42,0,1,1,0,0,0,0,1.41l6.37,6.37a.9.9,0,0,0,1.27,0l6.36-6.37A1,1,0,0,0,23.05,22Z" data-name="Layer 2" fill="#ffffff" class="color000 svgShape"></path></svg></g></svg>